<?xml version="1.0" encoding="UTF-8"?>
<svg version="1.1" xmlns="http://www.w3.org/2000/svg" width="797" height="505">
<path d="M0 0 C263.01 0 526.02 0 797 0 C797 166.65 797 333.3 797 505 C533.99 505 270.98 505 0 505 C0 338.35 0 171.7 0 0 Z " fill="#33B3D6" transform="translate(0,0)"/>
<path d="M0 0 C3.41818816 4.10182579 3.97216399 6.62693686 3.8125 11.9375 C4.08068166 15.8883906 4.37945232 17.6907134 7.03125 20.68359375 C8.93173419 22.18102581 10.8678221 23.63406739 12.83203125 25.046875 C21.49788094 31.32099468 28.37548631 39.83425038 34.875 48.25 C35.64328125 49.22839844 36.4115625 50.20679688 37.203125 51.21484375 C49.62606415 67.51663262 58.49029653 86.63296214 66.875 105.25 C67.39964844 106.40113281 67.92429687 107.55226563 68.46484375 108.73828125 C72.7116741 118.4259783 74.05593451 126.98070399 74.25 137.5 C74.27618408 138.36431641 74.30236816 139.22863281 74.3293457 140.11914062 C74.34412062 145.7708209 73.67595278 148.97564335 69.875 153.25 C66.875 153.9375 66.875 153.9375 63.875 153.25 C56.91412441 147.25591268 57.40615246 135.83523879 56.57177734 127.2824707 C56.52680208 123.44852448 56.52680208 123.44852448 54.875 120.25 C54.75382813 121.23742187 54.63265625 122.22484375 54.5078125 123.2421875 C54.25644531 125.16417969 54.25644531 125.16417969 54 127.125 C53.83757812 128.40117187 53.67515625 129.67734375 53.5078125 130.9921875 C52.875 134.25 52.875 134.25 50.875 136.25 C48.4375 136.6875 48.4375 136.6875 45.875 136.25 C42.31861612 131.55049273 41.74021598 127.25778149 41.4375 121.5 C40.94762277 114.19755935 40.94762277 114.19755935 38.875 107.25 C37.885 106.59 36.895 105.93 35.875 105.25 C35.69324219 106.62285156 35.69324219 106.62285156 35.5078125 108.0234375 C35.34023438 109.21195312 35.17265625 110.40046875 35 111.625 C34.83757812 112.80835938 34.67515625 113.99171875 34.5078125 115.2109375 C33.875 118.25 33.875 118.25 31.875 120.25 C29.4375 120.1875 29.4375 120.1875 26.875 119.25 C21.61450749 112.67438436 22.75912704 104.20661018 22.875 96.25 C22.00020996 95.98082764 21.12541992 95.71165527 20.22412109 95.43432617 C17.01383863 94.29909653 14.25919076 92.95524627 11.2890625 91.30078125 C10.21068115 90.7078125 9.1322998 90.11484375 8.02124023 89.50390625 C7.44977264 89.18824707 6.87830505 88.87258789 6.28952026 88.54736328 C-17.95367742 75.20510854 -43.1821653 64.04536711 -68.64932251 53.26911926 C-70.00463875 52.69524797 -71.35937582 52.12000651 -72.71347046 51.54325867 C-75.48300885 50.36372072 -78.25502676 49.19785685 -81.04907227 48.07739258 C-81.85787842 47.74505615 -82.66668457 47.41271973 -83.5 47.0703125 C-84.16644531 46.80621582 -84.83289063 46.54211914 -85.51953125 46.27001953 C-88.2865048 44.5120488 -89.01522624 42.04014583 -89.74609375 38.953125 C-91.58634319 25.82474753 -91.58634319 25.82474753 -88.9765625 21.2265625 C-82.35845758 14.86672509 -71.9838989 13.31196911 -63.28125 11.7421875 C-60.9324114 11.29563258 -60.9324114 11.29563258 -58.25 9.8125 C-54.34415907 7.85957954 -50.44572826 7.06202854 -46.20703125 6.07421875 C-43.33215454 5.30539874 -40.77935876 4.32527093 -38.0625 3.125 C-33.56274452 1.21513594 -29.49412886 0.74276785 -24.640625 0.46484375 C-21.92954575 0.32323658 -21.92954575 0.32323658 -18.6875 -0.8125 C-12.46484372 -2.45004113 -5.74053248 -3.21469819 0 0 Z " fill="#F2DC0D" transform="translate(412.125,117.75)"/>
<path d="M0 0 C1.69420077 1.44612503 3.28312978 2.95781739 4.86621094 4.5246582 C5.71771729 5.34172241 5.71771729 5.34172241 6.58642578 6.17529297 C7.7067532 7.2540852 8.82185532 8.33833547 9.93115234 9.4284668 C11.18192873 10.65722104 12.44979012 11.86855276 13.72167969 13.07543945 C16.88125871 16.11375532 19.39754219 18.95680122 21.42871094 22.8996582 C19.44871094 23.2296582 17.46871094 23.5596582 15.42871094 23.8996582 C16.143224 27.12352454 16.143224 27.12352454 19.11621094 28.5246582 C22.27508981 30.05785317 22.27508981 30.05785317 25.30761719 30.0246582 C29.96706718 31.33093705 31.2773341 34.25430579 33.67871094 38.2746582 C34.15050781 39.03633301 34.62230469 39.79800781 35.10839844 40.58276367 C40.32059576 49.12749224 44.94752002 57.95568305 49.42871094 66.8996582 C49.90405273 67.83181152 50.37939453 68.76396484 50.86914062 69.72436523 C67.22417489 101.89284083 67.22417489 101.89284083 64.42871094 119.8996582 C62.90136719 121.78637695 62.90136719 121.78637695 61.42871094 122.8996582 C58.79224159 116.29151185 58.4103573 109.32326498 57.66113281 102.30981445 C57.02128119 96.87284319 56.31195536 92.58994996 53.42871094 87.8996582 C51.44871094 87.8996582 49.46871094 87.8996582 47.42871094 87.8996582 C45.39651606 91.30317158 45.05980054 94.2229509 44.80371094 98.1496582 C44.72894531 99.22731445 44.65417969 100.3049707 44.57714844 101.4152832 C44.50367188 102.64504883 44.50367188 102.64504883 44.42871094 103.8996582 C43.76871094 103.5696582 43.10871094 103.2396582 42.42871094 102.8996582 C42.37263672 101.1980957 42.37263672 101.1980957 42.31542969 99.4621582 C42.24078983 87.07894953 42.24078983 87.07894953 37.01464844 76.23168945 C35.3833623 74.62449538 35.3833623 74.62449538 32.42871094 74.4621582 C29.37784259 74.60188857 29.37784259 74.60188857 27.67871094 76.6496582 C26.53509201 78.70817227 25.47449713 80.79036063 24.42871094 82.8996582 C24.33074219 81.88645508 24.23277344 80.87325195 24.13183594 79.8293457 C23.98165171 78.47768766 23.83056171 77.12613004 23.67871094 75.7746582 C23.61683594 75.10950195 23.55496094 74.4443457 23.49121094 73.7590332 C22.7936362 67.8296479 21.06293113 64.07127894 16.42260742 60.24584961 C9.57358051 55.26537557 2.16267506 51.19986095 -5.25878906 47.1496582 C-5.89034912 46.80338379 -6.52190918 46.45710938 -7.17260742 46.1003418 C-27.5962187 34.92007576 -48.39861046 25.12284848 -70.57128906 17.8996582 C-62.25691273 11.03093581 -50.07830195 8.69187778 -39.88378906 5.8371582 C-38.06210205 5.32390991 -38.06210205 5.32390991 -36.20361328 4.80029297 C-29.23043406 2.85847102 -22.24790372 0.97393879 -15.19628906 -0.6628418 C-14.49673096 -0.83114502 -13.79717285 -0.99944824 -13.07641602 -1.17285156 C-8.39068894 -2.20100005 -4.12501562 -2.88866461 0 0 Z " fill="#3DB6D1" transform="translate(416.5712890625,142.100341796875)"/>
<path d="M0 0 C1.93359375 -0.05607422 1.93359375 -0.05607422 3.90625 -0.11328125 C5.14890625 -0.12488281 6.3915625 -0.13648438 7.671875 -0.1484375 C8.81237305 -0.16825684 9.95287109 -0.18807617 11.12792969 -0.20849609 C15.23923328 0.55988173 16.685847 2.13634556 19.25 5.375 C20.43166777 8.73850673 20.37072349 11.97904122 20.36352539 15.52050781 C20.36344986 16.76149231 20.36337433 18.00247681 20.36329651 19.28106689 C20.35819031 20.63008667 20.35297432 21.97910604 20.34765625 23.328125 C20.34579024 24.71246286 20.3443672 26.09680138 20.34336853 27.48114014 C20.33955773 31.11761308 20.32973975 34.75404582 20.31866455 38.39050293 C20.3084195 42.10407976 20.30386429 45.8176631 20.29882812 49.53125 C20.28811616 56.81251829 20.27105704 64.0937535 20.25 71.375 C15.80260587 71.44949251 11.3555481 71.50376257 6.90771484 71.53979492 C5.39658273 71.55482543 3.88549382 71.57525564 2.37451172 71.60131836 C0.19487813 71.63795689 -1.98417575 71.65478338 -4.1640625 71.66796875 C-5.4732666 71.6836792 -6.7824707 71.69938965 -8.13134766 71.71557617 C-12.08115832 71.34383242 -14.43785884 70.53865972 -17.75 68.375 C-20.53605293 64.90866107 -20.09068328 60.54459253 -20.12109375 56.28515625 C-20.13012222 55.50361679 -20.1391507 54.72207733 -20.14845276 53.91685486 C-20.16293341 52.26695576 -20.17183657 50.61699951 -20.17553711 48.96704102 C-20.18744539 46.44904621 -20.23665643 43.93349439 -20.28710938 41.41601562 C-20.29657315 39.80990775 -20.30380841 38.20378488 -20.30859375 36.59765625 C-20.32812607 35.84855484 -20.34765839 35.09945343 -20.36778259 34.32765198 C-20.33322152 30.30468056 -19.91795063 28.58068891 -17.34008789 25.42358398 C-13.9413263 22.73539391 -12.418757 22.2505142 -8.1796875 22.27734375 C-7.28378906 22.28056641 -6.38789062 22.28378906 -5.46484375 22.28710938 C-4.52769531 22.29548828 -3.59054687 22.30386719 -2.625 22.3125 C-1.68011719 22.31701172 -0.73523438 22.32152344 0.23828125 22.32617188 C2.57558387 22.33797643 4.91276061 22.35444241 7.25 22.375 C7.25 20.065 7.25 17.755 7.25 15.375 C-1.99 15.375 -11.23 15.375 -20.75 15.375 C-19.75 6.375 -19.75 6.375 -17.25 3.375 C-16.425 2.715 -15.6 2.055 -14.75 1.375 C-11.97711719 -1.39788281 -3.72932254 0.04053611 0 0 Z " fill="#FADE04" transform="translate(528.75,325.625)"/>
<path d="M0 0 C1.93359375 -0.05607422 1.93359375 -0.05607422 3.90625 -0.11328125 C5.14890625 -0.12488281 6.3915625 -0.13648438 7.671875 -0.1484375 C8.81237305 -0.16825684 9.95287109 -0.18807617 11.12792969 -0.20849609 C15.19583748 0.55177131 16.64819898 2.23996559 19.25 5.375 C20.63425411 8.14350823 20.36959962 10.37919184 20.36352539 13.47705078 C20.36344986 14.75822784 20.36337433 16.03940491 20.36329651 17.35940552 C20.35818948 18.76304157 20.35297348 20.16667723 20.34765625 21.5703125 C20.34579146 23.00234935 20.34436784 24.43438684 20.34336853 25.86642456 C20.33954819 29.63773354 20.32972202 33.40900407 20.31866455 37.18029785 C20.30844005 41.02774536 20.30386868 44.87519907 20.29882812 48.72265625 C20.28809933 56.27345503 20.27102869 63.82422213 20.25 71.375 C15.9450223 71.44951364 11.64039266 71.50377223 7.33496094 71.53979492 C5.87232925 71.55482196 4.40974218 71.57524955 2.94726562 71.60131836 C0.8371272 71.63797267 -1.27241226 71.65478676 -3.3828125 71.66796875 C-4.65012207 71.6836792 -5.91743164 71.69938965 -7.22314453 71.71557617 C-11.83881223 71.26985719 -15.16763332 69.82225077 -18.59130859 66.69091797 C-20.28077051 63.31412999 -20.25704062 60.01916285 -20.2890625 56.3203125 C-20.30141937 55.54114471 -20.31377625 54.76197693 -20.32650757 53.959198 C-20.3460432 52.31353238 -20.35730054 50.66775042 -20.36083984 49.02197266 C-20.37492166 46.51395182 -20.44225725 44.01092441 -20.51171875 41.50390625 C-20.6738798 30.21180666 -20.6738798 30.21180666 -18.5144043 25.91845703 C-15.3186815 22.71942652 -12.11585195 22.06320917 -7.69140625 21.7890625 C-5.89749256 21.82848917 -4.10402439 21.89939604 -2.3125 22 C-0.92901367 22.04060547 -0.92901367 22.04060547 0.48242188 22.08203125 C2.7407652 22.15223881 4.99411037 22.25047106 7.25 22.375 C7.25 20.065 7.25 17.755 7.25 15.375 C-1.99 15.375 -11.23 15.375 -20.75 15.375 C-19.75 6.375 -19.75 6.375 -17.25 3.375 C-16.425 2.715 -15.6 2.055 -14.75 1.375 C-11.97711719 -1.39788281 -3.72932254 0.04053611 0 0 Z " fill="#FBDE03" transform="translate(373.75,325.625)"/>
<path d="M0 0 C1.12857422 -0.03738281 2.25714844 -0.07476562 3.41992188 -0.11328125 C12.74475991 -0.21207294 12.74475991 -0.21207294 16.41796875 2.7734375 C21.15123368 8.19917665 19.87155857 14.26678353 19.875 21.1875 C19.88724609 22.47205078 19.89949219 23.75660156 19.91210938 25.08007812 C19.91404297 26.31822266 19.91597656 27.55636719 19.91796875 28.83203125 C19.92207764 29.96616455 19.92618652 31.10029785 19.93041992 32.26879883 C19.59040885 36.61649818 18.54874909 39.3761549 15.70703125 42.671875 C11.28513111 45.16598685 7.35548163 44.8080283 2.375 44.625 C0.97797852 44.59792969 0.97797852 44.59792969 -0.44726562 44.5703125 C-2.73612149 44.52336161 -5.02444527 44.45162323 -7.3125 44.375 C-7.3125 48.335 -7.3125 52.295 -7.3125 56.375 C1.5975 56.375 10.5075 56.375 19.6875 56.375 C19.6875 64.59722222 19.6875 64.59722222 15.6875 69.375 C10.7463933 72.53927879 4.97711323 71.78346724 -0.6875 71.8125 C-2.37359375 71.86180664 -2.37359375 71.86180664 -4.09375 71.91210938 C-13.34605495 71.97226029 -13.34605495 71.97226029 -17.0390625 68.97265625 C-20.22349257 65.33408925 -20.44501364 63.64723364 -20.50537109 58.90307617 C-20.52143402 57.75816208 -20.53749695 56.61324799 -20.55404663 55.43363953 C-20.59840947 50.1952795 -20.640001 44.95700712 -20.66259766 39.71850586 C-20.67593269 36.95286957 -20.70377554 34.18797192 -20.74462891 31.42260742 C-20.80343476 27.44191468 -20.82125882 23.46158105 -20.8359375 19.48046875 C-20.85860687 18.24387009 -20.88127625 17.00727142 -20.90463257 15.73320007 C-20.88106253 6.18645884 -20.88106253 6.18645884 -17.96728516 3.1184082 C-12.35973525 -0.56409261 -6.49566912 0.08078277 0 0 Z " fill="#FADE04" transform="translate(223.3125,325.625)"/>
<path d="M0 0 C4.95 0 9.9 0 15 0 C15 18.48 15 36.96 15 56 C19.62 56 24.24 56 29 56 C29 37.52 29 19.04 29 0 C33.29 0 37.58 0 42 0 C42.06783919 8.12783093 42.12285234 16.25544089 42.15543652 24.38347912 C42.17107711 28.15785956 42.19228561 31.93203586 42.22631836 35.70629883 C42.25896976 39.35026868 42.2768651 42.99404247 42.28463173 46.63814735 C42.29016492 48.02679848 42.30097003 49.41543916 42.31719017 50.80400658 C42.33903856 52.75228745 42.34022604 54.70076658 42.34057617 56.64916992 C42.34723801 57.7572551 42.35389984 58.86534027 42.36076355 60.00700378 C41.85118177 64.23463805 40.18438594 66.84729646 37.16552734 69.78540039 C32.77775357 72.24641218 27.53058343 71.46822974 22.625 71.4375 C21.5009375 71.45748047 20.376875 71.47746094 19.21875 71.49804688 C12.87694671 71.49429876 8.74687779 71.38967127 4 67 C1.67967333 63.51950999 1.73596052 62.11270315 1.69702148 57.99975586 C1.68037949 56.76515121 1.66373749 55.53054657 1.64659119 54.25852966 C1.63803024 52.91063475 1.62953261 51.56273943 1.62109375 50.21484375 C1.6049186 48.83385543 1.58773858 47.45287854 1.56959534 46.07191467 C1.52391487 42.43790975 1.48910542 38.80388956 1.45739746 35.16973877 C1.40551423 29.34910824 1.34042638 23.52864574 1.26918221 17.70822334 C1.24632579 15.67300531 1.23007075 13.6378087 1.21446228 11.6025238 C1.20097244 10.37107132 1.1874826 9.13961884 1.17358398 7.87084961 C1.16407211 6.78291611 1.15456024 5.6949826 1.14476013 4.57408142 C1.17123841 2.01223765 1.17123841 2.01223765 0 0 Z " fill="#FADE04" transform="translate(406,326)"/>
<path d="M0 0 C1.61455078 -0.02416992 1.61455078 -0.02416992 3.26171875 -0.04882812 C13.56139263 -0.05517811 13.56139263 -0.05517811 18.125 3.3125 C21.43702925 7.27721425 21.45422301 10.57021267 21.3125 15.625 C21.27189453 17.50638672 21.27189453 17.50638672 21.23046875 19.42578125 C21.19566406 20.37839844 21.16085937 21.33101563 21.125 22.3125 C16.835 22.3125 12.545 22.3125 8.125 22.3125 C8.125 20.0025 8.125 17.6925 8.125 15.3125 C-0.29 15.8075 -0.29 15.8075 -8.875 16.3125 C-8.215 16.9725 -7.555 17.6325 -6.875 18.3125 C-6.75 20.9375 -6.75 20.9375 -6.875 23.3125 C-6.17761719 23.54582031 -5.48023438 23.77914063 -4.76171875 24.01953125 C-0.67418019 25.85035028 2.56882268 28.5823721 6.01635742 31.38525391 C8.70033938 33.53805879 11.08858351 35.29456974 14.1953125 36.82421875 C17.36488255 38.39997366 19.0641867 39.40657247 21.125 42.3125 C22.75414866 49.86100286 22.44668492 58.45282876 19.94921875 65.74609375 C17.55656775 69.11220019 16.07627674 70.02746088 12.125 71.3125 C8.28201683 71.7242482 4.48670785 71.73143852 0.625 71.6875 C-0.90447266 71.70490234 -0.90447266 71.70490234 -2.46484375 71.72265625 C-7.96661364 71.70119291 -12.19814919 71.54973387 -16.875 68.3125 C-20.75159731 62.23916421 -20.11304411 56.37447539 -19.875 49.3125 C-15.585 49.3125 -11.295 49.3125 -6.875 49.3125 C-6.875 51.6225 -6.875 53.9325 -6.875 56.3125 C-1.925 56.3125 3.025 56.3125 8.125 56.3125 C8.125 53.6725 8.125 51.0325 8.125 48.3125 C7.33996094 47.96251953 7.33996094 47.96251953 6.5390625 47.60546875 C2.65527502 45.5253172 -0.83458946 42.86739014 -4.35986328 40.23754883 C-7.20489725 38.13397266 -9.79832071 36.34855071 -13.015625 34.8359375 C-16.23728969 33.26192418 -17.84631963 32.3011809 -19.875 29.3125 C-21.53695002 21.45910505 -21.76096181 11.99869807 -18.0703125 4.78515625 C-12.99317124 -0.93340321 -7.17377267 -0.02132513 0 0 Z " fill="#FBDE03" transform="translate(274.875,325.6875)"/>
<path d="M0 0 C5.03534236 -0.0990984 10.07011342 -0.1715758 15.10620117 -0.21972656 C16.81821586 -0.23980505 18.53016228 -0.26707392 20.24194336 -0.30175781 C22.70704008 -0.35044401 25.1712279 -0.37300573 27.63671875 -0.390625 C28.39836838 -0.41127014 29.16001801 -0.43191528 29.94474792 -0.45318604 C33.68491609 -0.45475467 35.78097498 -0.14053729 38.96020508 1.89941406 C42.28949258 5.3279227 42.12271893 7.41334433 42.11352539 12.10205078 C42.11344986 13.38322784 42.11337433 14.66440491 42.11329651 15.98440552 C42.10818948 17.38804157 42.10297348 18.79167723 42.09765625 20.1953125 C42.09579146 21.62734935 42.09436784 23.05938684 42.09336853 24.49142456 C42.08954819 28.26273354 42.07972202 32.03400407 42.06866455 35.80529785 C42.05844005 39.65274536 42.05386868 43.50019907 42.04882812 47.34765625 C42.03809932 54.89845706 42.02050643 62.44921825 42 70 C38.04 70 34.08 70 30 70 C30 51.85 30 33.7 30 15 C21.585 15.495 21.585 15.495 13 16 C13.66 16.33 14.32 16.66 15 17 C15 34.82 15 52.64 15 71 C10.71 71 6.42 71 2 71 C1.97494385 68.92025879 1.9498877 66.84051758 1.92407227 64.69775391 C1.84070272 57.83650181 1.75200347 50.97532615 1.66066074 44.1141758 C1.60542878 39.95309752 1.55200835 35.79201222 1.50268555 31.63085938 C1.45504601 27.61728058 1.40270336 23.60378848 1.34705925 19.59031296 C1.32663383 18.05689011 1.30792105 16.52344349 1.29092598 14.98997879 C1.26688605 12.84690991 1.23683111 10.70400538 1.20532227 8.56103516 C1.18977798 7.33969879 1.1742337 6.11836243 1.15821838 4.86001587 C1.19291357 2.05488886 1.19291357 2.05488886 0 0 Z " fill="#FBDE03" transform="translate(561,326)"/>
<path d="M0 0 C4.29 0 8.58 0 13 0 C13 8.58 13 17.16 13 26 C17.95 26 22.9 26 28 26 C28 30.95 28 35.9 28 41 C19.585 41.495 19.585 41.495 11 42 C11.66 42.33 12.32 42.66 13 43 C13 55.87 13 68.74 13 82 C19.93 82 26.86 82 34 82 C34 86.95 34 91.9 34 97 C30.14540544 97.08124438 26.29253885 97.14062344 22.4375 97.1875 C20.80844727 97.22520508 20.80844727 97.22520508 19.14648438 97.26367188 C8.08434908 97.36454241 8.08434908 97.36454241 3 94 C0.08804953 88.61387228 -0.42335994 84.26974527 -0.34057617 78.21899414 C-0.34101425 77.36941132 -0.34145233 76.51982849 -0.34190369 75.64450073 C-0.33982648 72.85781251 -0.31654623 70.07173838 -0.29296875 67.28515625 C-0.28736899 65.34460275 -0.28310069 63.40404499 -0.28010559 61.46348572 C-0.26868674 56.37202106 -0.23924508 51.28081577 -0.20599365 46.18945312 C-0.17522887 40.98766589 -0.16158658 35.78583649 -0.14648438 30.58398438 C-0.1143725 20.38920937 -0.06321204 10.19462631 0 0 Z " fill="#F8DD06" transform="translate(617,300)"/>
<path d="M0 0 C4.29 0 8.58 0 13 0 C13 8.58 13 17.16 13 26 C17.95 26 22.9 26 28 26 C28 30.95 28 35.9 28 41 C22.06 41 16.12 41 10 41 C10 41.66 10 42.32 10 43 C10.99 43.33 11.98 43.66 13 44 C13 56.54 13 69.08 13 82 C19.93 82 26.86 82 34 82 C34 86.62 34 91.24 34 96 C29.62396553 96.13506279 25.25210732 96.23417753 20.875 96.3125 C19.6375 96.35439453 18.4 96.39628906 17.125 96.43945312 C6.84396509 96.57763908 6.84396509 96.57763908 3.1953125 93.73046875 C-0.58738179 89.0256586 -0.13983097 84.4065928 -0.11352539 78.55957031 C-0.11367142 77.71042557 -0.11381744 76.86128082 -0.1139679 75.98640442 C-0.11327201 73.1836185 -0.10549476 70.38089929 -0.09765625 67.578125 C-0.09579092 65.63328081 -0.09436756 63.68843614 -0.09336853 61.74359131 C-0.08955242 56.62752991 -0.07972984 51.51149695 -0.06866455 46.39544678 C-0.05843098 41.17379135 -0.05386674 35.95213132 -0.04882812 30.73046875 C-0.03810678 20.48696668 -0.0210412 10.24348571 0 0 Z " fill="#FADE04" transform="translate(309,300)"/>
<path d="M0 0 C4.35403865 -0.08755672 8.70784877 -0.14057969 13.0625 -0.1875 C14.29162109 -0.21263672 15.52074219 -0.23777344 16.78710938 -0.26367188 C28.48122474 -0.35823345 28.48122474 -0.35823345 34 3 C36 6 36 6 36 15 C28.41 15.33 20.82 15.66 13 16 C13.99 16.66 14.98 17.32 16 18 C16.36076355 20.25259399 16.36076355 20.25259399 16.34057617 23.09228516 C16.34034958 24.15323395 16.34012299 25.21418274 16.33988953 26.30728149 C16.32440567 27.45626923 16.30892181 28.60525696 16.29296875 29.7890625 C16.28872391 30.96262299 16.28447906 32.13618347 16.28010559 33.3453064 C16.26326976 37.10543454 16.22560777 40.86503297 16.1875 44.625 C16.17245954 47.16926311 16.15877003 49.7135346 16.14648438 52.2578125 C16.11335005 58.50541344 16.06153347 64.75261682 16 71 C11.71 71 7.42 71 3 71 C2.98018066 68.95578857 2.96036133 66.91157715 2.93994141 64.80541992 C2.87307334 58.05588156 2.79543336 51.3064982 2.71247292 44.5571394 C2.66249932 40.46447841 2.61616948 36.37184337 2.578125 32.27905273 C2.54128546 28.33023742 2.49492935 24.38163862 2.44193649 20.43300819 C2.42338541 18.92554835 2.40828007 17.41804209 2.39665604 15.91051292 C2.37980549 13.80103701 2.35077441 11.69205772 2.31884766 9.58276367 C2.30552399 8.38141281 2.29220032 7.18006195 2.2784729 5.94230652 C2.21661073 2.81159613 2.21661073 2.81159613 0 0 Z " fill="#F9DD05" transform="translate(462,326)"/>
<path d="M0 0 C4.35403865 -0.08755672 8.70784877 -0.14057969 13.0625 -0.1875 C14.29162109 -0.21263672 15.52074219 -0.23777344 16.78710938 -0.26367188 C23.27598392 -0.31614256 28.33323075 -0.32189921 34 3 C37.13738634 6.68301875 36 9.79798949 36 15 C28.41 15.33 20.82 15.66 13 16 C13.99 16.66 14.98 17.32 16 18 C16.36076355 20.25259399 16.36076355 20.25259399 16.34057617 23.09228516 C16.34034958 24.15323395 16.34012299 25.21418274 16.33988953 26.30728149 C16.32440567 27.45626923 16.30892181 28.60525696 16.29296875 29.7890625 C16.28872391 30.96262299 16.28447906 32.13618347 16.28010559 33.3453064 C16.26326976 37.10543454 16.22560777 40.86503297 16.1875 44.625 C16.17245954 47.16926311 16.15877003 49.7135346 16.14648438 52.2578125 C16.11335005 58.50541344 16.06153347 64.75261682 16 71 C11.71 71 7.42 71 3 71 C2.98018066 68.95578857 2.96036133 66.91157715 2.93994141 64.80541992 C2.87307334 58.05588156 2.79543336 51.3064982 2.71247292 44.5571394 C2.66249932 40.46447841 2.61616948 36.37184337 2.578125 32.27905273 C2.54128546 28.33023742 2.49492935 24.38163862 2.44193649 20.43300819 C2.42338541 18.92554835 2.40828007 17.41804209 2.39665604 15.91051292 C2.37980549 13.80103701 2.35077441 11.69205772 2.31884766 9.58276367 C2.30552399 8.38141281 2.29220032 7.18006195 2.2784729 5.94230652 C2.21661073 2.81159613 2.21661073 2.81159613 0 0 Z " fill="#F9DD05" transform="translate(156,326)"/>
<path d="M0 0 C2.97945601 2.89182495 2.9842817 4.6803946 3.1875 8.8125 C3.0946875 10.3903125 3.0946875 10.3903125 3 12 C-0.65239721 13.67340908 -4.23353868 14.49092258 -8.17919922 15.19091797 C-28.48767809 18.79527766 -48.56908001 24.67561022 -67 34 C-67.26554687 33.19175781 -67.53109375 32.38351563 -67.8046875 31.55078125 C-68.15789062 30.48214844 -68.51109375 29.41351563 -68.875 28.3125 C-69.22304688 27.25675781 -69.57109375 26.20101562 -69.9296875 25.11328125 C-70.87331366 22.36850006 -71.89491289 19.68307185 -73 17 C-68.17118856 15.53036174 -63.41171963 14.47988358 -58.4296875 13.66015625 C-55.90321626 13.09569705 -55.90321626 13.09569705 -53.58984375 11.5234375 C-50.61319672 9.77246866 -48.06993686 9.21468244 -44.6875 8.5625 C-40.75253359 7.72967956 -37.46447018 6.92117962 -34 4.875 C-29.55682092 2.38455568 -25.0408312 2.45055929 -20.0390625 2.21484375 C-16.84992959 2.09548585 -16.84992959 2.09548585 -13.3125 0.9375 C-8.84134719 -0.32792061 -4.60592246 -0.79241677 0 0 Z " fill="#3AB5D3" transform="translate(408,122)"/>
<path d="M0 0 C5.94 0 11.88 0 18 0 C18 6.27 18 12.54 18 19 C13.05 19 8.1 19 3 19 C3 13.39 3 7.78 3 2 C2.01 1.67 1.02 1.34 0 1 C0 0.67 0 0.34 0 0 Z " fill="#3AB5D2" transform="translate(518,363)"/>
<path d="M0 0 C5.94 0 11.88 0 18 0 C18 6.27 18 12.54 18 19 C13.05 19 8.1 19 3 19 C3 13.39 3 7.78 3 2 C2.01 1.67 1.02 1.34 0 1 C0 0.67 0 0.34 0 0 Z " fill="#34B3D1" transform="translate(363,363)"/>
<path d="M0 0 C5.61 0 11.22 0 17 0 C17 4.62 17 9.24 17 14 C12.38 14 7.76 14 3 14 C2.70703125 9.84960938 2.70703125 9.84960938 2.4140625 5.69921875 C2.16134528 2.78471567 2.16134528 2.78471567 0 0 Z " fill="#2AAFD3" transform="translate(213,341)"/>
<path d="M0 0 C5.87344757 0 8.89324297 3.09533897 13.046875 6.796875 C16.99124812 11.24612788 17.22776005 15.19211868 17 21 C13.02801767 20.8796369 11.14966978 19.4446342 8.4375 16.75 C7.28201146 15.50891972 6.13541313 14.25947253 5 13 C4.21625 12.195625 3.4325 11.39125 2.625 10.5625 C0.37510876 7.01459459 0.28277342 4.17090789 0 0 Z " fill="#F4DC0B" transform="translate(439,186)"/>
<path d="M0 0 C1.71484375 1.046875 1.71484375 1.046875 2.4609375 3.15625 C2.58662109 4.09210938 2.58662109 4.09210938 2.71484375 5.046875 C-2.50742993 8.52839079 -9.18913567 7.49104123 -15.28515625 7.046875 C-18.00990088 6.32278772 -19.84185708 5.4770989 -22.28515625 4.046875 C-22.28515625 2.726875 -22.28515625 1.406875 -22.28515625 0.046875 C-15.19730515 -3.73331225 -7.32557376 -2.3174047 0 0 Z " fill="#F4DC0B" transform="translate(391.28515625,157.953125)"/>
<path d="M0 0 C6.33283525 0.35411172 9.94437062 2.52477771 14.9375 6.3125 C15.62134766 6.79912109 16.30519531 7.28574219 17.00976562 7.78710938 C20.73300131 10.55070989 20.73300131 10.55070989 22 12 C22 13.32 22 14.64 22 16 C15.63521872 16.45462723 11.27746331 15.71377048 6 12 C2.6807095 9.01970087 0.20122812 6.57628697 -0.375 2.0625 C-0.25125 1.381875 -0.1275 0.70125 0 0 Z " fill="#F6DD09" transform="translate(406,167)"/>
<path d="M0 0 C4.22261875 1.47431091 7.6650297 3.26268595 10.87109375 6.46875 C10.87109375 7.45875 10.87109375 8.44875 10.87109375 9.46875 C3.68809133 9.95850017 -4.25920541 8.79057051 -10.4921875 5.05078125 C-11.03230469 4.52871094 -11.57242187 4.00664062 -12.12890625 3.46875 C-12.12890625 2.47875 -12.12890625 1.48875 -12.12890625 0.46875 C-8.3678702 -1.41176802 -3.99522709 -0.9969741 0 0 Z " fill="#F9DD06" transform="translate(413.12890625,149.53125)"/>
<path d="M0 0 C1.86328125 0.24609375 1.86328125 0.24609375 4 1 C7.51194302 6.09510464 8.55991204 11.94879053 9 18 C4.25 17.25 4.25 17.25 2 15 C0.41288949 9.79780443 -0.22575085 5.41802032 0 0 Z " fill="#44B7C6" transform="translate(327,143)"/>
</svg>
